<?xml version="1.0" encoding="UTF-8" standalone="no"?>
<!-- Created with Inkscape (http://www.inkscape.org/) -->
<svg
    xmlns:inkscape="http://www.inkscape.org/namespaces/inkscape"
    xmlns:rdf="http://www.w3.org/1999/02/22-rdf-syntax-ns#"
    xmlns="http://www.w3.org/2000/svg"
    xmlns:cc="http://creativecommons.org/ns#"
    xmlns:dc="http://purl.org/dc/elements/1.1/"
    xmlns:sodipodi="http://sodipodi.sourceforge.net/DTD/sodipodi-0.dtd"
    xmlns:svg="http://www.w3.org/2000/svg"
    xmlns:ns1="http://sozi.baierouge.fr"
    xmlns:xlink="http://www.w3.org/1999/xlink"
    id="svg2"
    sodipodi:docname="music.svg"
    viewBox="0 0 372.05 524.41"
    version="1.1"
    inkscape:version="0.48.2 r9819">
  <sodipodi:namedview
      id="base"
      bordercolor="#666666"
      inkscape:pageshadow="2"
      inkscape:guide-bbox="true"
      pagecolor="#ffffff"
      inkscape:window-height="838"
      inkscape:window-maximized="1"
      inkscape:zoom="0.37006159"
      inkscape:window-x="-8"
      showgrid="false"
      borderopacity="1.0"
      inkscape:current-layer="layer1"
      inkscape:cx="55.651292"
      inkscape:cy="361.7334"
      showguides="true"
      inkscape:window-y="-8"
      inkscape:window-width="1600"
      inkscape:pageopacity="0.0"
      inkscape:document-units="px" />
  <g
      id="layer1"
      inkscape:label="Layer 1"
      inkscape:groupmode="layer"
      transform="translate(0 -527.95)">
    <text
        id="text3213"
        style="font-size:11px;font-family:Sansus Webissimo;fill:#000000;letter-spacing:0px;line-height:0%;word-spacing:0px"
        xml:space="preserve"
        y="293.90054"
        x="-346.9711"
        sodipodi:linespacing="0%">
      <tspan
          id="tspan3215"
          sodipodi:role="line"
          x="-346.9711"
          y="293.90054" />
    </text>
    <rect
        id="rect4987"
        style="fill:#162d50"
        ry="10.176"
        height="133.92"
        width="101.5"
        y="635.82"
        x="237.14" />
    <path
        id="path4989"
        sodipodi:rx="31.240192"
        sodipodi:ry="31.240192"
        style="fill:#162d50"
        sodipodi:type="arc"
        d="m-2601.6-695.29a31.24 31.24 0 1 1 -62.48 0 31.24 31.24 0 1 1 62.48 0z"
        transform="matrix(2.0352 0 0 2.0352 5431.3 2296.4)"
        sodipodi:cy="-695.28741"
        sodipodi:cx="-2632.8171" />
    <path
        id="path5065"
        sodipodi:rx="31.240192"
        sodipodi:ry="31.240192"
        style="fill:#008080"
        sodipodi:type="arc"
        d="m-2663.7-699.68a31.24 31.24 0 0 1 12.391 -20.752l18.539 25.145z"
        transform="matrix(2.0352 0 0 2.0352 5431.3 2296.4)"
        sodipodi:cy="-695.28741"
        sodipodi:cx="-2632.8171"
        sodipodi:end="4.0770891"
        sodipodi:start="3.282678" />
    <path
        id="path5061"
        sodipodi:rx="31.240192"
        sodipodi:ry="31.240192"
        style="fill:#008080"
        sodipodi:type="arc"
        d="m-2601.6-695.29a31.24 31.24 0 0 1 -7.4316 20.226l-23.809-20.226z"
        transform="matrix(2.0352 0 0 2.0352 5431.3 2296.4)"
        sodipodi:cy="-695.28741"
        sodipodi:cx="-2632.8171"
        sodipodi:end="0.7042229"
        sodipodi:start="0" />
    <rect
        id="rect4991"
        style="fill:#162d50"
        ry="2.9074"
        height="20.292"
        width="28.408"
        y="741.99"
        x="14.631" />
    <rect
        id="rect4993"
        style="fill:#162d50"
        ry="2.9074"
        height="20.292"
        width="28.408"
        y="741.99"
        x="45.745" />
    <rect
        id="rect4995"
        style="fill:#162d50"
        ry="2.9074"
        height="20.292"
        width="28.408"
        y="741.99"
        x="76.859" />
    <rect
        id="rect4997"
        style="fill:#162d50"
        ry="2.9074"
        height="20.292"
        width="28.408"
        y="741.99"
        x="107.97" />
    <rect
        id="rect4999"
        style="fill:#162d50"
        ry="2.9074"
        height="20.292"
        width="28.408"
        y="741.99"
        x="139.09" />
    <rect
        id="rect5001"
        style="fill:#162d50"
        ry="2.9074"
        height="20.292"
        width="28.408"
        y="718.99"
        x="45.745" />
    <rect
        id="rect5003"
        style="fill:#162d50"
        ry="2.9074"
        height="20.292"
        width="28.408"
        y="718.99"
        x="76.859" />
    <rect
        id="rect5005"
        style="fill:#162d50"
        ry="2.9074"
        height="20.292"
        width="28.408"
        y="718.99"
        x="107.97" />
    <rect
        id="rect5007"
        style="fill:#162d50"
        ry="2.9074"
        height="20.292"
        width="28.408"
        y="718.99"
        x="139.09" />
    <rect
        id="rect5009"
        style="fill:#162d50"
        ry="2.9074"
        height="20.292"
        width="28.408"
        y="695.99"
        x="45.745" />
    <rect
        id="rect5011"
        style="fill:#162d50"
        ry="2.9074"
        height="20.292"
        width="28.408"
        y="695.99"
        x="76.859" />
    <rect
        id="rect5013"
        style="fill:#162d50"
        ry="2.9074"
        height="20.292"
        width="28.408"
        y="695.99"
        x="107.97" />
    <rect
        id="rect5015"
        style="fill:#162d50"
        ry="2.9074"
        height="20.292"
        width="28.408"
        y="673"
        x="76.859" />
    <rect
        id="rect5017"
        style="fill:#162d50"
        ry="2.9074"
        height="20.292"
        width="28.408"
        y="673"
        x="107.97" />
    <rect
        id="rect5019"
        style="fill:#162d50"
        ry="2.9074"
        height="20.292"
        width="28.408"
        y="650"
        x="76.859" />
    <path
        id="path5021"
        sodipodi:rx="31.240192"
        sodipodi:ry="31.240192"
        style="fill:#ffffff"
        sodipodi:type="arc"
        d="m-2601.6-695.29a31.24 31.24 0 1 1 -62.48 0 31.24 31.24 0 1 1 62.48 0z"
        transform="matrix(.82274 0 0 .82274 2454 1237.6)"
        sodipodi:cy="-695.28741"
        sodipodi:cx="-2632.8171" />
    <path
        id="path5023"
        sodipodi:rx="31.240192"
        sodipodi:ry="31.240192"
        style="fill:#ffffff"
        sodipodi:type="arc"
        d="m-2601.6-695.29a31.24 31.24 0 1 1 -62.48 0 31.24 31.24 0 1 1 62.48 0z"
        transform="matrix(.99595 0 0 .99595 2910.1 1425.7)"
        sodipodi:cy="-695.28741"
        sodipodi:cx="-2632.8171" />
    <path
        id="path5025"
        sodipodi:rx="31.240192"
        sodipodi:ry="31.240192"
        style="fill:#162d50"
        sodipodi:type="arc"
        d="m-2601.6-695.29a31.24 31.24 0 1 1 -62.48 0 31.24 31.24 0 1 1 62.48 0z"
        transform="matrix(.30312 0 0 .30312 1085.9 876.33)"
        sodipodi:cy="-695.28741"
        sodipodi:cx="-2632.8171" />
    <path
        id="path5027"
        sodipodi:rx="31.240192"
        sodipodi:ry="31.240192"
        style="fill:#162d50"
        sodipodi:type="arc"
        d="m-2601.6-695.29a31.24 31.24 0 1 1 -62.48 0 31.24 31.24 0 1 1 62.48 0z"
        transform="matrix(.92119 0 0 .92119 2713.2 1373.7)"
        sodipodi:cy="-695.28741"
        sodipodi:cx="-2632.8171" />
    <path
        id="path5029"
        sodipodi:rx="31.240192"
        sodipodi:ry="31.240192"
        style="fill:#ffffff"
        sodipodi:type="arc"
        d="m-2601.6-695.29a31.24 31.24 0 1 1 -62.48 0 31.24 31.24 0 1 1 62.48 0z"
        transform="matrix(.74011 0 0 .74011 2236.5 1247.8)"
        sodipodi:cy="-695.28741"
        sodipodi:cx="-2632.8171" />
    <path
        id="path5031"
        sodipodi:rx="31.240192"
        sodipodi:ry="31.240192"
        style="fill:#162d50"
        sodipodi:type="arc"
        d="m-2601.6-695.29a31.24 31.24 0 1 1 -62.48 0 31.24 31.24 0 1 1 62.48 0z"
        transform="matrix(.27555 0 0 .27555 1013.4 924.8)"
        sodipodi:cy="-695.28741"
        sodipodi:cx="-2632.8171" />
    <path
        id="path5035"
        sodipodi:rx="31.240192"
        sodipodi:ry="31.240192"
        style="fill:#ffffff"
        sodipodi:type="arc"
        d="m-2601.6-695.29a31.24 31.24 0 1 1 -62.48 0 31.24 31.24 0 1 1 62.48 0z"
        transform="matrix(.83248 0 0 .83248 2264.8 1460.2)"
        sodipodi:cy="-695.28741"
        sodipodi:cx="-2632.8171" />
    <path
        id="path5033"
        sodipodi:rx="31.240192"
        sodipodi:ry="31.240192"
        style="fill:#162d50"
        sodipodi:type="arc"
        d="m-2601.6-695.29a31.24 31.24 0 1 1 -62.48 0 31.24 31.24 0 1 1 62.48 0z"
        transform="matrix(.38145 0 0 .38145 1077.3 1146.6)"
        sodipodi:cy="-695.28741"
        sodipodi:cx="-2632.8171" />
    <rect
        id="rect5037"
        style="stroke:#162d50;stroke-width:4.1706;fill:#162d50"
        ry="6.1496"
        height="130.38"
        width="151.61"
        y="796.06"
        x="186.48" />
    <g
        id="g5047"
        transform="matrix(1.2299 0 0 1.2299 4041.1 735.21)"
      >
      <path
          id="path5039"
          d="m-3112.3 53.043v98.86"
          style="stroke:#ffffff;stroke-width:3;fill:#ffffff"
          inkscape:connector-curvature="0" />
      <path
          id="path5041"
          style="stroke:#ffffff;stroke-width:3;fill:#ffffff"
          inkscape:connector-curvature="0"
          d="m-3085.7 53.043v98.86" />
      <path
          id="path5043"
          d="m-3059.1 53.043v98.86"
          style="stroke:#ffffff;stroke-width:3;fill:#ffffff"
          inkscape:connector-curvature="0"
      />
      <path
          id="path5045"
          style="stroke:#ffffff;stroke-width:3;fill:#ffffff"
          inkscape:connector-curvature="0"
          d="m-3032.5 53.043v98.86" />
    </g>
    <rect
        id="rect5053"
        style="stroke:#ffffff;stroke-linecap:round;stroke-width:3.6897;fill:#162d50"
        ry="6.1496"
        height="18.395"
        width="23.101"
        y="818.88"
        x="202.22" />
    <rect
        id="rect5055"
        style="stroke:#ffffff;stroke-linecap:round;stroke-width:3.6897;fill:#162d50"
        ry="6.1496"
        height="18.395"
        width="23.101"
        y="863.65"
        x="232.47" />
    <rect
        id="rect5057"
        style="stroke:#ffffff;stroke-linecap:round;stroke-width:3.6897;fill:#162d50"
        ry="6.1496"
        height="18.395"
        width="23.101"
        y="812.83"
        x="266.35" />
    <rect
        id="rect5059"
        style="stroke:#ffffff;stroke-linecap:round;stroke-width:3.6897;fill:#162d50"
        ry="6.1496"
        height="18.395"
        width="23.101"
        y="886.64"
        x="300.23" />
  </g>
  <metadata>
    <rdf:RDF>
      <cc:Work>
        <dc:format>image/svg+xml</dc:format>
        <dc:type rdf:resource="http://purl.org/dc/dcmitype/StillImage" />
        <cc:license rdf:resource="http://creativecommons.org/licenses/publicdomain/" />
        <dc:publisher>
          <cc:Agent rdf:about="http://openclipart.org/">
            <dc:title>Openclipart</dc:title>
          </cc:Agent>
        </dc:publisher>
        <dc:title>music icon</dc:title>
        <dc:date>2012-10-02T18:54:56</dc:date>
        <dc:description/>
        <dc:source>https://openclipart.org/detail/172589/music-icon-by-areksvg-172589</dc:source>
        <dc:creator>
          <cc:Agent>
            <dc:title>areksvg</dc:title>
          </cc:Agent>
        </dc:creator>
        <dc:subject>
          <rdf:Bag>
            <rdf:li>Vinyl</rdf:li>
            <rdf:li>equalizer</rdf:li>
            <rdf:li>speaker</rdf:li>
          </rdf:Bag>
        </dc:subject>
      </cc:Work>
      <cc:License rdf:about="http://creativecommons.org/licenses/publicdomain/">
        <cc:permits rdf:resource="http://creativecommons.org/ns#Reproduction" />
        <cc:permits rdf:resource="http://creativecommons.org/ns#Distribution" />
        <cc:permits rdf:resource="http://creativecommons.org/ns#DerivativeWorks" />
      </cc:License>
    </rdf:RDF>
  </metadata>
</svg>
